<?xml version="1.0" standalone="no"?>
<!DOCTYPE svg PUBLIC "-//W3C//DTD SVG 20010904//EN"
 "http://www.w3.org/TR/2001/REC-SVG-20010904/DTD/svg10.dtd">
<svg version="1.0" xmlns="http://www.w3.org/2000/svg"
 width="394.000000pt" height="394.000000pt" viewBox="0 0 394.000000 394.000000"
 preserveAspectRatio="xMidYMid meet">
<metadata>
Created by potrace 1.15, written by Peter Selinger 2001-2017
</metadata>
<g transform="translate(0.000000,394.000000) scale(0.100000,-0.100000)"
fill="#000000" stroke="none">
<path d="M30 2982 c0 -516 -3 -1391 -7 -1945 l-6 -1006 919 0 c505 -1 1381 -4
1945 -8 l1026 -6 6 1059 c4 582 7 1458 7 1945 l0 886 -997 6 c-549 4 -1424 7
-1945 7 l-948 0 0 -938z m2283 351 c152 -101 277 -189 277 -194 0 -6 5 -7 10
-4 6 3 10 1 10 -5 0 -6 4 -9 9 -6 5 3 12 -1 15 -10 4 -9 9 -14 13 -10 3 3 13
-3 20 -14 8 -11 19 -18 24 -15 5 4 9 1 9 -5 0 -6 5 -8 10 -5 6 3 10 2 10 -4 0
-5 173 -124 384 -265 211 -140 393 -267 405 -282 21 -26 21 -32 21 -555 l0
-528 -31 -36 c-17 -19 -35 -35 -40 -35 -5 0 -205 -131 -444 -290 -239 -160
-435 -287 -435 -283 0 5 -5 0 -11 -10 -6 -9 -14 -15 -19 -12 -4 3 -11 -2 -14
-11 -3 -8 -10 -12 -16 -9 -6 3 -13 -1 -16 -9 -3 -9 -10 -13 -15 -10 -5 3 -12
-2 -15 -10 -3 -9 -10 -14 -14 -11 -5 3 -13 -3 -19 -12 -6 -10 -11 -15 -11 -10
0 4 -89 -52 -198 -125 -187 -125 -200 -132 -255 -136 l-57 -4 -713 475 c-689
459 -794 536 -781 571 3 8 2 16 -3 19 -4 3 -6 230 -3 505 5 486 6 501 26 529
21 29 1442 983 1491 1001 57 21 91 4 376 -185z"/>
<path d="M1325 2784 c-275 -184 -501 -338 -502 -342 0 -4 99 -74 222 -155
l224 -148 283 189 283 189 3 302 c1 165 -1 301 -5 300 -5 0 -233 -151 -508
-335z"/>
<path d="M2120 2820 l0 -300 213 -141 c116 -78 245 -167 285 -197 59 -45 75
-53 83 -41 5 8 9 10 9 4 0 -5 7 -1 16 10 8 11 18 19 22 18 8 -2 390 249 391
258 1 3 -123 88 -273 188 -151 101 -276 186 -278 190 -3 7 -408 280 -447 300
l-21 12 0 -301z"/>
<path d="M1748 2122 c-120 -81 -218 -150 -218 -153 0 -8 438 -299 451 -299 16
0 450 293 447 302 -5 12 -436 298 -450 297 -7 0 -111 -66 -230 -147z"/>
<path d="M700 1970 c0 -168 3 -209 13 -203 93 59 297 198 297 202 0 5 -242
171 -297 204 -11 7 -13 -30 -13 -203z"/>
<path d="M3105 2068 c-82 -55 -151 -103 -152 -107 -2 -3 66 -52 150 -108 l152
-103 3 105 c1 58 1 152 0 209 l-3 104 -150 -100z"/>
<path d="M1043 1652 c-121 -81 -222 -150 -222 -153 -1 -4 36 -30 82 -60 45
-29 87 -58 92 -64 14 -16 827 -556 831 -552 2 2 4 138 4 303 l1 299 -273 183
c-150 101 -277 186 -283 188 -5 2 -110 -63 -232 -144z"/>
<path d="M2645 1760 c-22 -16 -43 -29 -48 -30 -4 0 -112 -69 -241 -154 l-233
-153 -6 -54 c-8 -61 -10 -549 -2 -549 2 0 105 68 229 150 124 83 228 150 231
150 3 0 18 9 33 19 80 57 384 251 392 251 6 0 10 5 10 11 0 5 14 15 30 20 17
6 30 15 30 20 0 5 7 9 15 9 8 0 15 4 15 9 0 5 9 11 20 14 11 3 20 9 19 14 0 7
-428 294 -447 300 -4 1 -25 -11 -47 -27z"/>
</g>
</svg>
