<?xml version="1.0" standalone="no"?>
<!DOCTYPE svg PUBLIC "-//W3C//DTD SVG 20010904//EN"
 "http://www.w3.org/TR/2001/REC-SVG-20010904/DTD/svg10.dtd">
<svg version="1.0" xmlns="http://www.w3.org/2000/svg"
 width="516.000000pt" height="516.000000pt" viewBox="0 0 516.000000 516.000000"
 preserveAspectRatio="xMidYMid meet">
<metadata>
Created by potrace 1.15, written by Peter Selinger 2001-2017
</metadata>
<g transform="translate(0.000000,516.000000) scale(0.100000,-0.100000)"
fill="#000000" stroke="none">
<path d="M1298 5133 l-1278 -3 0 -643 c0 -353 3 -1503 7 -2556 l6 -1913 2551
7 c1403 4 2553 9 2555 11 2 2 0 1151 -4 2554 l-8 2550 -1276 -2 c-702 -2
-1851 -4 -2553 -5z m266 -1042 c3 -4 24 -11 46 -15 22 -3 40 -11 40 -16 0 -6
7 -10 16 -10 18 0 84 -65 84 -82 0 -6 9 -19 21 -29 11 -10 18 -23 14 -28 -3
-6 -1 -11 4 -11 6 0 11 -16 11 -35 0 -19 3 -35 8 -35 9 0 8 -117 -1 -127 -4
-3 -7 -17 -7 -30 0 -12 -4 -23 -10 -23 -5 0 -7 -7 -4 -15 4 -8 1 -15 -5 -15
-6 0 -11 -6 -11 -14 0 -7 -7 -19 -15 -26 -8 -7 -15 -21 -15 -31 0 -12 -10 -21
-25 -25 -14 -3 -25 -10 -25 -14 0 -12 -83 -50 -108 -50 -13 0 -25 -7 -28 -15
-8 -20 -129 -22 -137 -1 -3 7 -26 17 -50 20 -25 4 -51 14 -58 22 -7 8 -20 12
-30 9 -13 -5 -19 -1 -19 10 0 8 -6 18 -14 21 -8 3 -18 18 -21 34 -3 16 -13 31
-21 34 -8 3 -14 12 -14 21 0 8 -4 15 -10 15 -5 0 -10 14 -10 30 0 17 -3 30 -7
30 -10 0 -8 148 1 157 3 3 6 17 6 30 0 13 4 23 10 23 5 0 7 7 4 15 -4 8 -1 15
5 15 6 0 11 6 11 13 0 19 85 107 103 107 10 0 17 4 17 10 0 5 18 13 40 16 22
4 43 11 46 15 3 5 38 9 79 9 41 0 76 -4 79 -9z m1916 -890 c0 -4 21 -11 48
-14 49 -6 102 -27 102 -39 0 -5 10 -8 21 -8 12 0 29 -8 38 -19 9 -10 26 -21
39 -25 12 -4 22 -12 22 -17 0 -5 8 -9 19 -9 10 0 28 -13 41 -30 13 -16 28 -30
34 -30 7 0 18 -20 25 -45 7 -25 17 -45 22 -45 5 0 9 -9 9 -20 0 -11 4 -20 10
-20 5 0 13 -18 16 -40 4 -22 10 -40 15 -40 4 0 11 -31 15 -70 5 -49 11 -70 20
-70 10 0 14 -15 14 -53 0 -30 2 -56 5 -59 3 -3 6 -294 8 -647 l2 -641 -282 0
c-276 0 -283 0 -283 20 0 11 -4 20 -10 20 -7 0 -10 198 -10 575 0 316 -4 575
-8 575 -4 0 -6 16 -4 35 3 28 1 35 -13 35 -11 0 -15 5 -11 15 3 8 1 15 -4 15
-6 0 -10 8 -10 19 0 22 -43 71 -63 71 -8 0 -17 7 -21 15 -3 8 -12 15 -20 15
-7 0 -16 6 -19 14 -7 18 -134 31 -217 21 -46 -5 -60 -10 -56 -21 4 -10 -2 -14
-18 -14 -33 0 -57 -10 -50 -21 3 -5 -7 -9 -22 -9 -15 0 -24 -3 -21 -7 4 -3 -2
-13 -14 -21 -11 -8 -18 -20 -16 -26 3 -7 -3 -19 -14 -27 -10 -7 -19 -19 -19
-26 0 -7 -5 -13 -11 -13 -7 0 -9 -11 -6 -30 5 -21 2 -32 -10 -38 -13 -8 -15
-19 -10 -56 4 -28 3 -46 -3 -46 -6 0 -10 -191 -10 -532 0 -307 -4 -539 -10
-548 -7 -12 -57 -15 -284 -18 l-275 -4 -5 23 c-3 13 -7 438 -10 944 -6 910 -5
921 14 938 23 19 120 24 120 7 0 -7 47 -10 134 -9 105 1 136 4 140 15 7 17 91
19 127 2 23 -11 24 -13 21 -111 -5 -116 5 -133 50 -86 16 16 33 29 38 29 6 0
10 5 10 11 0 19 61 72 107 94 24 11 43 23 43 28 0 4 7 7 15 7 8 0 15 5 15 10
0 6 10 10 23 10 13 0 28 5 33 10 6 6 34 13 62 17 29 3 52 10 52 14 0 5 70 9
155 9 85 0 155 -4 155 -9z m-2130 -41 c0 -6 51 -10 134 -10 79 0 137 4 141 10
10 16 121 12 134 -4 9 -11 14 -252 18 -944 6 -842 5 -932 -10 -946 -13 -14
-52 -16 -285 -16 l-269 0 -6 946 c-5 694 -4 951 4 960 13 16 139 20 139 4z"/>
</g>
</svg>
