<?xml version="1.0" standalone="no"?>
<!DOCTYPE svg PUBLIC "-//W3C//DTD SVG 20010904//EN"
 "http://www.w3.org/TR/2001/REC-SVG-20010904/DTD/svg10.dtd">
<svg version="1.0" xmlns="http://www.w3.org/2000/svg"
 width="422.000000pt" height="509.000000pt" viewBox="0 0 422.000000 509.000000"
 preserveAspectRatio="xMidYMid meet">
<metadata>
Created by potrace 1.15, written by Peter Selinger 2001-2017
</metadata>
<g transform="translate(0.000000,509.000000) scale(0.100000,-0.100000)"
fill="#000000" stroke="none">
<path d="M40 5050 c-20 -20 -20 -33 -20 -1368 0 -1118 2 -1351 14 -1367 8 -11
33 -21 67 -26 30 -4 298 -8 597 -8 l542 -1 0 180 0 180 -430 0 -430 0 0 1035
0 1035 1730 0 1730 0 0 -1035 0 -1035 -430 0 -430 0 0 -180 0 -180 543 1 c298
0 566 4 596 8 34 5 59 15 67 26 12 16 14 249 14 1367 0 1335 0 1348 -20 1368
-20 20 -33 20 -2070 20 -2037 0 -2050 0 -2070 -20z"/>
<path d="M1915 4005 c-267 -59 -417 -229 -480 -545 -22 -111 -30 -349 -16
-450 35 -245 132 -476 278 -660 l63 -80 -9 -65 c-21 -145 -87 -216 -261 -277
-30 -11 -176 -50 -324 -88 -148 -38 -272 -74 -276 -80 -3 -5 -43 -196 -89
-423 -45 -226 -85 -420 -87 -429 -5 -17 66 -18 1396 -18 1330 0 1401 1 1396
18 -2 9 -42 207 -87 438 l-83 422 -275 70 c-301 76 -411 114 -482 166 -60 45
-99 122 -106 210 -6 65 -6 65 36 112 131 149 248 402 286 618 17 101 20 343 5
451 -50 347 -210 548 -487 609 -88 20 -311 20 -398 1z"/>
</g>
</svg>
