<?xml version="1.0" standalone="no"?>
<!DOCTYPE svg PUBLIC "-//W3C//DTD SVG 20010904//EN"
 "http://www.w3.org/TR/2001/REC-SVG-20010904/DTD/svg10.dtd">
<svg version="1.0" xmlns="http://www.w3.org/2000/svg"
 width="1538.000000pt" height="1538.000000pt" viewBox="0 0 1538.000000 1538.000000"
 preserveAspectRatio="xMidYMid meet">
<metadata>
Created by potrace 1.15, written by Peter Selinger 2001-2017
</metadata>
<g transform="translate(0.000000,1538.000000) scale(0.100000,-0.100000)"
fill="#000000" stroke="none">
<path d="M20 11523 c0 -2111 -3 -5562 -7 -7670 l-6 -3832 3699 0 c2034 -1
5486 -4 7670 -8 l3971 -6 6 4023 c4 2213 7 5664 7 7670 l0 3647 -3832 6
c-2108 4 -5560 7 -7670 7 l-3838 0 0 -3837z m9855 507 c160 -13 170 -21 185
-131 18 -144 8 -1405 -12 -1393 -4 3 -8 2 -8 -3 0 -4 -136 -9 -303 -11 -178
-2 -303 -7 -305 -13 -2 -5 -40 -9 -83 -9 -123 0 -374 -21 -377 -31 -2 -5 -16
-9 -32 -9 -36 0 -184 -30 -190 -39 -3 -4 -24 -13 -47 -19 -24 -7 -43 -17 -43
-22 0 -5 -10 -15 -23 -22 -58 -33 -87 -54 -87 -63 0 -5 -14 -26 -30 -45 -16
-19 -30 -41 -30 -47 0 -7 -4 -13 -8 -13 -5 0 -15 -26 -22 -57 -8 -32 -17 -60
-21 -63 -11 -8 -29 -161 -29 -242 0 -39 -4 -68 -10 -68 -6 0 -10 -67 -10 -180
0 -99 4 -180 8 -180 5 0 12 -140 15 -311 3 -171 7 -312 9 -314 2 -2 256 -6
566 -11 309 -4 562 -11 562 -15 0 -5 97 -9 216 -9 l217 0 -7 -157 c-5 -93 -12
-160 -18 -164 -6 -4 -9 -27 -6 -58 3 -28 2 -51 -2 -51 -4 0 -13 -58 -20 -130
-7 -71 -16 -130 -20 -130 -4 0 -14 -61 -21 -135 -7 -74 -16 -135 -21 -135 -4
0 -8 -26 -8 -58 0 -62 -18 -174 -28 -182 -4 -3 -11 -13 -17 -23 -5 -10 -14
-17 -19 -15 -19 7 -29 -54 -35 -215 l-6 -168 -706 1 -707 0 -7 -2038 c-4
-1121 -4 -2048 -1 -2060 l7 -22 -852 0 -852 0 7 2060 8 2060 -709 0 -708 0 0
200 c0 110 3 200 6 200 3 0 9 118 13 262 5 158 12 265 18 269 6 4 9 47 6 108
-1 55 0 101 3 101 4 0 10 107 15 238 l9 237 548 3 c301 1 547 6 547 11 0 4 34
11 75 14 83 6 154 41 174 84 6 13 15 23 20 23 12 0 31 111 31 178 0 29 5 52
10 52 7 0 10 177 10 510 0 481 12 848 29 860 4 3 13 48 20 100 6 52 16 97 20
100 5 3 14 38 21 78 6 40 18 78 25 86 8 7 17 30 20 50 4 20 11 36 16 36 5 0 6
7 3 15 -4 8 -1 15 5 15 6 0 16 20 22 45 6 25 15 45 20 45 4 0 14 18 20 40 7
22 15 40 19 40 4 0 13 14 20 30 7 17 16 30 21 30 5 0 6 6 3 14 -3 7 2 16 10
19 9 4 16 13 16 22 0 8 4 15 8 15 5 0 17 18 27 39 10 22 24 42 31 45 8 3 14
12 14 20 0 9 9 20 20 26 11 6 20 17 20 24 0 7 24 35 53 63 29 27 52 54 50 59
-2 6 8 17 23 24 14 8 54 41 88 73 80 75 94 87 105 87 6 0 16 8 23 18 7 9 27
24 43 32 17 8 34 21 38 27 4 7 14 13 21 13 6 0 27 11 45 24 19 14 46 28 62 31
16 4 29 11 29 15 0 5 19 15 43 22 23 7 48 18 55 25 7 7 28 15 47 19 19 3 35 9
35 13 0 8 73 31 100 31 11 0 20 4 20 9 0 11 110 31 167 31 23 0 43 4 45 9 2 8
241 24 493 34 203 8 1030 6 1140 -3z"/>
</g>
</svg>
